<svg width="12" height="13" viewBox="0 0 12 13" fill="none" xmlns="http://www.w3.org/2000/svg">
<path d="M6.99496 11.0073L6.99496 3.42132L9.28796 5.71432C9.53904 5.97428 9.91084 6.07854 10.2605 5.98702C10.6101 5.89551 10.8831 5.62246 10.9747 5.27283C11.0662 4.9232 10.9619 4.5514 10.702 4.30032L6.70196 0.300324C6.51436 0.112241 6.25962 0.00653648 5.99396 0.00653648C5.72831 0.00653648 5.47357 0.112241 5.28596 0.300324L1.28596 4.30032C0.895499 4.69134 0.895947 5.32486 1.28696 5.71532C1.67798 6.10579 2.3115 6.10534 2.70196 5.71432L4.99496 3.42132L4.99496 11.0073C4.99496 11.5596 5.44268 12.0073 5.99496 12.0073C6.54725 12.0073 6.99496 11.5596 6.99496 11.0073Z" fill="#82D616"/>
</svg>
