<svg width="20" height="20" viewBox="0 0 20 20" fill="none" xmlns="http://www.w3.org/2000/svg">
<path d="M15.8334 18.4515C13.9913 18.4515 12.5238 18.0965 11.6667 17.5V18.4515C11.6667 19.3342 13.458 20 15.8334 20C18.2088 20 20.0001 19.3342 20.0001 18.4515V17.5C19.143 18.0965 17.6755 18.4515 15.8334 18.4515Z" fill="white"/>
<path d="M15.8334 15.9515C13.9913 15.9515 12.5238 15.5965 11.6667 15V15.9515C11.6667 16.8342 13.458 17.5 15.8334 17.5C18.2088 17.5 20.0001 16.8342 20.0001 15.9515V15C19.143 15.5965 17.6755 15.9515 15.8334 15.9515Z" fill="white"/>
<path d="M15.8334 13.4515C13.9913 13.4515 12.5238 13.0965 11.6667 12.5V13.4515C11.6667 14.3342 13.458 15 15.8334 15C18.2088 15 20.0001 14.3342 20.0001 13.4515V12.5C19.143 13.0965 17.6755 13.4515 15.8334 13.4515Z" fill="white"/>
<path d="M15.8334 9.16663C13.458 9.16663 11.6667 9.88329 11.6667 10.8333C11.6667 11.7833 13.458 12.5 15.8334 12.5C18.2088 12.5 20.0001 11.7833 20.0001 10.8333C20.0001 9.88329 18.2088 9.16663 15.8334 9.16663Z" fill="white"/>
<path fill-rule="evenodd" clip-rule="evenodd" d="M15.7143 8C12.581 8 10.4762 9.07156 10.4762 10.6667V13.3333H0.436508C0.195556 13.3333 0 13.1342 0 12.8889V0.444444C0 0.199111 0.195556 0 0.436508 0H17.8968C18.1378 0 18.3333 0.199111 18.3333 0.444444V7.47644V8.30178C17.5843 8.10667 16.7008 8 15.7143 8ZM9.16667 4.88889C8.20242 4.88889 7.42063 5.68489 7.42063 6.66667C7.42063 7.64844 8.20242 8.44444 9.16667 8.44444C10.1309 8.44444 10.9127 7.64844 10.9127 6.66667C10.9127 5.68489 10.1309 4.88889 9.16667 4.88889Z" fill="white"/>
</svg>
